<svg width="24" height="24" xmlns="http://www.w3.org/2000/svg" xmlns:xlink="http://www.w3.org/1999/xlink" xml:space="preserve" overflow="hidden"><g transform="translate(-39 -824)"><path d="M60.375 842.9 57.25 839.775C56.825 839.35 56.25 839.2 55.7 839.3L54.6 838.2C55.575 836.95 56.15 835.35 56.15 833.65 56.15 829.525 52.775 826.15 48.65 826.15 44.525 826.15 41.15 829.525 41.15 833.65 41.15 837.775 44.525 841.15 48.65 841.15 50.35 841.15 51.925 840.575 53.2 839.6L54.3 840.7C54.2 841.25 54.35 841.825 54.775 842.25L57.9 845.375C58.25 845.725 58.7 845.9 59.15 845.9 59.6 845.9 60.05 845.725 60.4 845.375 61.05 844.675 61.05 843.575 60.375 842.9ZM48.625 839.625C45.325 839.625 42.625 836.925 42.625 833.625 42.625 830.325 45.325 827.625 48.625 827.625 51.925 827.625 54.625 830.325 54.625 833.625 54.625 836.925 51.925 839.625 48.625 839.625Z"/></g></svg>