<svg width="24" height="24" xmlns="http://www.w3.org/2000/svg" xmlns:xlink="http://www.w3.org/1999/xlink" xml:space="preserve" overflow="hidden"><g transform="translate(-74 -824)"><path d="M90 831.5C90 833.709 88.2091 835.5 86 835.5 83.7909 835.5 82 833.709 82 831.5 82 829.291 83.7909 827.5 86 827.5 88.2091 827.5 90 829.291 90 831.5Z"/><path d="M94 844.5 94 840.5C94 839.9 93.7 839.3 93.2 838.9 92.1 838 90.7 837.4 89.3 837 88.3 836.7 87.2 836.5 86 836.5 84.9 836.5 83.8 836.7 82.7 837 81.3 837.4 79.9 838.1 78.8 838.9 78.3 839.3 78 839.9 78 840.5L78 844.5 94 844.5Z"/></g></svg>