<svg width="24" height="24" xmlns="http://www.w3.org/2000/svg" xmlns:xlink="http://www.w3.org/1999/xlink" xml:space="preserve" overflow="hidden"><g transform="translate(-39 -886)"><path d="M56.075 906.8 56.75 896.15 57.45 905.425 56.075 906.8ZM54.525 907.5 44.525 907.5 45.4 893.5 46.5 893.5 46.5 895.5C46.5 895.775 46.725 896 47 896 47.275 896 47.5 895.775 47.5 895.5L47.5 893.5 52.5 893.5 52.5 895.5C52.5 895.775 52.725 896 53 896 53.275 896 53.5 895.775 53.5 895.5L53.5 893.5 55.4 893.5 54.525 907.5ZM47.5 891C47.5 889.85 48.275 888.9 49.325 888.6 48.95 889.15 48.75 889.8 48.75 890.5L48.75 892 47.5 892 47.5 891ZM50.65 888.575C51.725 888.85 52.5 889.825 52.5 891L52.5 892 49.75 892 49.75 890.5C49.75 889.725 50.1 889.05 50.65 888.575ZM52.25 888C53.625 888 54.75 889.125 54.75 890.5L54.75 892 53.5 892 53.5 891C53.5 889.75 52.85 888.65 51.85 888.025 51.975 888.025 52.125 888 52.25 888ZM58 892.95C57.975 892.425 57.525 892 57 892L55.925 892C56.425 892 56.85 892.375 56.925 892.85 56.85 892.375 56.45 892 55.925 892L55.75 892 55.75 890.5C55.75 888.575 54.175 887 52.25 887 51.575 887 50.95 887.2 50.425 887.525 50.275 887.5 50.15 887.5 50 887.5 48.075 887.5 46.5 889.075 46.5 891L46.5 892 44.95 892C44.425 892 43.975 892.4 43.95 892.95L43.025 907.95C43 908.525 43.45 909 44.025 909L55.025 909 55.6 909C55.875 909 56.15 908.875 56.325 908.675L58.7 906.325C58.9 906.125 59.025 905.825 59 905.55L58 892.95Z"/></g></svg>